<svg width="22" height="14" viewBox="0 0 22 14" fill="none" xmlns="http://www.w3.org/2000/svg">
<path d="M8.497 6.64556C9.62435 6.08045 10.2426 5.26811 10.2426 4.03193C10.2426 1.52426 8.31517 0.923828 6.1332 0.923828H0.0600586V13.4269H6.27867C8.64247 13.4269 10.8244 12.332 10.8244 9.78899C10.8244 8.23493 10.0607 7.0694 8.497 6.64556ZM2.86025 3.04299H5.55135C6.5696 3.04299 7.47875 3.32554 7.47875 4.49108C7.47875 5.55066 6.75143 5.9745 5.73318 5.9745H2.86025V3.04299ZM5.91501 11.3077H2.86025V7.84642H5.95137C7.22419 7.84642 7.98788 8.37621 7.98788 9.64771C7.98788 10.9192 7.04236 11.3077 5.91501 11.3077ZM18.9341 2.79575V1.55958H13.7337V2.79575H18.9341ZM21.007 9.04728C21.007 6.36301 19.3705 4.10257 16.4612 4.10257C13.5883 4.10257 11.6609 6.18641 11.6609 8.906C11.6609 11.7316 13.5155 13.6741 16.4612 13.6741C18.6795 13.6741 20.1342 12.6852 20.8251 10.6367H18.5704C18.3159 11.4137 17.2976 11.8022 16.5339 11.8022C15.0429 11.8022 14.2429 10.9545 14.2429 9.50643H20.9706C20.9706 9.36515 21.007 9.18856 21.007 9.04728ZM14.2429 7.91706C14.3156 6.75152 15.152 6.00982 16.3521 6.00982C17.6613 6.00982 18.3159 6.7162 18.425 7.91706H14.2429Z" fill="#6E6E6E"/>
</svg>
