<svg width="57" height="18" viewBox="0 0 57 18" fill="none" xmlns="http://www.w3.org/2000/svg">
<path d="M15.4443 0.923828H18.0016V17.3171H15.4443V0.923828ZM26.9521 12.0876C26.9521 14.5964 24.8954 14.7964 24.2836 14.7964C22.7549 14.7964 22.4768 13.3289 22.4768 12.4437V6.16966H19.9196V12.4306C19.9196 13.9846 20.3952 15.2672 21.2289 16.1223C21.9654 16.8784 23.0689 17.2915 24.2644 17.2915C25.1121 17.2915 26.3128 17.0207 26.9521 16.422V17.3171H29.5093V6.16966H26.9521V12.0876ZM34.6239 2.23529H32.0666V6.16966H30.1487V8.79258H32.0666V17.3171H34.6239V8.79258H36.5419V6.16966H34.6239V2.23529ZM44.5954 13.984C44.0385 14.4974 43.3033 14.782 42.4965 14.782C40.7179 14.782 39.4118 13.4424 39.4118 11.603C39.4118 9.76371 40.6763 8.48045 42.4965 8.48045C43.2892 8.48045 44.0385 8.75127 44.6094 9.2647L44.9975 9.60699L46.7217 7.83915L46.2902 7.43981C45.2756 6.50015 43.9285 5.97294 42.4958 5.97294C39.2992 5.97294 36.9779 8.33881 36.9779 11.5893C36.9779 14.8259 39.3549 17.2764 42.4958 17.2764C43.9554 17.2764 45.3165 16.7492 46.3183 15.7945L46.7352 15.3951L44.9841 13.6286L44.5954 13.984ZM55.8493 7.14145C55.1128 6.38605 54.2497 5.97294 53.0542 5.97294C52.2064 5.97294 51.2462 6.24376 50.6069 6.84178V0.923828H48.0496V17.3171H50.6069V11.1762C50.6069 8.66733 52.3445 8.46799 52.9564 8.46799C54.485 8.46799 54.4428 9.93617 54.4428 10.8201V17.3171H57.0001V10.8339C57.0001 9.27978 56.6836 7.99718 55.8493 7.14145Z" fill="#6E6E6E"/>
<path d="M42.412 9.73608C42.9024 9.73608 43.3727 9.93588 43.7194 10.2915C44.0661 10.6472 44.2609 11.1295 44.2609 11.6325C44.2609 12.1354 44.0661 12.6177 43.7194 12.9734C43.3727 13.329 42.9024 13.5288 42.412 13.5288C41.9217 13.5288 41.4514 13.329 41.1046 12.9734C40.7579 12.6177 40.5631 12.1354 40.5631 11.6325C40.5631 11.1295 40.7579 10.6472 41.1046 10.2915C41.4514 9.93588 41.9217 9.73608 42.412 9.73608Z" fill="#6E6E6E"/>
<path d="M11.8641 13.199C10.8917 14.2252 9.5709 14.7812 8.18102 14.7812C5.33222 14.7812 3.26083 12.4862 3.26083 9.33607C3.26083 6.17153 5.33222 3.87647 8.18102 3.87647C9.55748 3.87647 10.8636 4.43188 11.8507 5.44432L12.2394 5.84366L13.949 4.09024L13.5737 3.6909C12.1563 2.19387 10.2383 1.38208 8.18102 1.38208C3.9839 1.38208 0.828857 4.80302 0.828857 9.34984C0.828857 13.8829 3.99796 17.2901 8.18102 17.2901C10.2524 17.2901 12.1704 16.4638 13.5877 14.9668L13.963 14.5675L12.2675 12.7859L11.8641 13.199Z" fill="#6E6E6E"/>
</svg>
