<svg width="18" height="17" viewBox="0 0 18 17" fill="none" xmlns="http://www.w3.org/2000/svg">
<path d="M16.1667 0.56958H2.07881C1.45675 0.56958 0.944458 1.11846 0.944458 1.77712V15.7919C0.944458 16.4505 1.45675 16.9628 2.07881 16.9628H16.1667C16.7888 16.9628 17.3377 16.4505 17.3377 15.7919V1.77712C17.3377 1.11846 16.7888 0.56958 16.1667 0.56958ZM5.88438 14.6209H3.46931V6.82682H5.88438V14.6209ZM4.67684 5.72906C3.87182 5.72906 3.24976 5.10699 3.24976 4.33856C3.24976 3.57013 3.87182 2.91147 4.67684 2.91147C5.44528 2.91147 6.06734 3.57013 6.06734 4.33856C6.06734 5.10699 5.44528 5.72906 4.67684 5.72906ZM14.9958 14.6209H12.5441V10.8153C12.5441 9.93714 12.5441 8.76619 11.3 8.76619C10.0193 8.76619 9.83632 9.75418 9.83632 10.7788V14.6209H7.42125V6.82682H9.72654V7.88798H9.76314C10.0925 7.26592 10.8975 6.60726 12.0684 6.60726C14.5201 6.60726 14.9958 8.2539 14.9958 10.3397V14.6209Z" fill="#6E6E6E"/>
</svg>
