<svg width="19" height="16" viewBox="0 0 19 16" fill="none" xmlns="http://www.w3.org/2000/svg">
<path d="M16.9673 4.19689C17.6803 3.63728 18.3219 2.96575 18.8209 2.1823C18.1793 2.48076 17.4307 2.7046 16.6822 2.77922C17.4664 2.29422 18.0367 1.54808 18.3219 0.615399C17.609 1.06309 16.7891 1.39885 15.9693 1.58539C15.2564 0.801935 14.294 0.354248 13.2246 0.354248C11.1572 0.354248 9.48186 2.10769 9.48186 4.2715C9.48186 4.56996 9.5175 4.86842 9.58879 5.16688C6.48766 4.98034 3.70733 3.41344 1.85378 1.06309C1.53298 1.62269 1.35475 2.29422 1.35475 3.04037C1.35475 4.38343 1.99636 5.57726 3.03007 6.28609C2.42411 6.24879 1.81814 6.09956 1.31911 5.8011V5.83841C1.31911 7.74108 2.60233 9.30798 4.3133 9.68105C4.02814 9.75566 3.67169 9.83028 3.35088 9.83028C3.10136 9.83028 2.88749 9.79297 2.63798 9.75566C3.10136 11.3226 4.49153 12.4418 6.13121 12.4791C4.84798 13.5237 3.24395 14.1579 1.49733 14.1579C1.17652 14.1579 0.891363 14.1206 0.606201 14.0833C2.24588 15.2025 4.20637 15.8367 6.34508 15.8367C13.2246 15.8367 16.9673 9.90489 16.9673 4.71919C16.9673 4.53266 16.9673 4.38343 16.9673 4.19689Z" fill="#6E6E6E"/>
</svg>
